HIERARCHY
ROOT RootJoint
{
    OFFSET   0.000000   0.000000   0.000000
    CHANNELS 6 Xposition Yposition Zposition Xrotation Yrotation Zrotation
    JOINT pelvis_lowerback
    {
        OFFSET   0.000000   0.093605   0.000000
        CHANNELS 3 Xrotation Yrotation Zrotation
        JOINT lowerback_torso
        {
            OFFSET   0.000000   0.100000   0.000000
            CHANNELS 3 Xrotation Yrotation Zrotation
            JOINT torso_head
            {
                OFFSET   0.000000   0.282350   0.000000
                CHANNELS 3 Xrotation Yrotation Zrotation
                End Site
                {
                    OFFSET   0.000000   0.192650   0.000000
                }
            }
            JOINT rTorso_Clavicle
            {
                OFFSET  -0.001000   0.157500   0.000000
                CHANNELS 3 Xrotation Yrotation Zrotation
                JOINT rShoulder
                {
                    OFFSET  -0.117647   0.000000   0.000000
                    CHANNELS 3 Xrotation Yrotation Zrotation
                    JOINT rElbow
                    {
                        OFFSET  -0.245000   0.000000   0.000000
                        CHANNELS 3 Xrotation Yrotation Zrotation
                        JOINT rWrist
                        {
                            OFFSET  -0.240000   0.000000   0.000000
                            CHANNELS 3 Xrotation Yrotation Zrotation
                            End Site
                            {
                                OFFSET  -0.116353  -0.002500   0.000000
                            }
                        }
                    }
                }
            }
            JOINT lTorso_Clavicle
            {
                OFFSET   0.001000   0.157500   0.000000
                CHANNELS 3 Xrotation Yrotation Zrotation
                JOINT lShoulder
                {
                    OFFSET   0.117647   0.000000   0.000000
                    CHANNELS 3 Xrotation Yrotation Zrotation
                    JOINT lElbow
                    {
                        OFFSET   0.245000   0.000000   0.000000
                        CHANNELS 3 Xrotation Yrotation Zrotation
                        JOINT lWrist
                        {
                            OFFSET   0.240000   0.000000   0.000000
                            CHANNELS 3 Xrotation Yrotation Zrotation
                            End Site
                            {
                                OFFSET   0.116353  -0.002500   0.000000
                            }
                        }
                    }
                }
            }
        }
    }
    JOINT rHip
    {
        OFFSET  -0.100000  -0.051395   0.000000
        CHANNELS 3 Xrotation Yrotation Zrotation
        JOINT rKnee
        {
            OFFSET   0.000000  -0.410000   0.000000
            CHANNELS 3 Xrotation Yrotation Zrotation
            JOINT rAnkle
            {
                OFFSET   0.000000  -0.390000   0.000000
                CHANNELS 3 Xrotation Yrotation Zrotation
                JOINT rToeJoint
                {
                    OFFSET   0.000000  -0.050000   0.130000
                    CHANNELS 3 Xrotation Yrotation Zrotation
                    End Site
                    {
                        OFFSET  -0.010000   0.002000   0.060000
                    }
                }
            }
        }
    }
    JOINT lHip
    {
        OFFSET   0.100000  -0.051395   0.000000
        CHANNELS 3 Xrotation Yrotation Zrotation
        JOINT lKnee
        {
            OFFSET   0.000000  -0.410000   0.000000
            CHANNELS 3 Xrotation Yrotation Zrotation
            JOINT lAnkle
            {
                OFFSET   0.000000  -0.390000   0.000000
                CHANNELS 3 Xrotation Yrotation Zrotation
                JOINT lToeJoint
                {
                    OFFSET   0.000000  -0.050000   0.130000
                    CHANNELS 3 Xrotation Yrotation Zrotation
                    End Site
                    {
                        OFFSET   0.010000   0.002000   0.060000
                    }
                }
            }
        }
    }
}
MOTION
Frames: 12
Frame Time:   0.008333
 -2.376719   0.925631   3.975860   0.000000   0.000000   0.000000   0.000000   0.000000   0.000000   0.000000   0.000000   0.000000   0.000000   0.000000   0.000000   0.000000   0.000000   0.000000   0.000000   0.000000   0.000000   0.000000   0.000000   0.000000   0.000000   0.000000   0.000000   0.000000   0.000000   0.000000   0.000000   0.000000   0.000000   0.000000   0.000000   0.000000   0.000000   0.000000   0.000000   0.000000   0.000000   0.000000   0.000000   0.000000   0.000000   0.000000   0.000000   0.000000   0.000000   0.000000   0.000000   0.000000   0.000000   0.000000   0.000000   0.000000   0.000000   0.000000   0.000000   0.000000   0.000000   0.000000   0.000000
 -2.377386   0.925935   3.973532   1.765024   0.366592  -0.289145  -2.091763  -0.409260  -0.194796   0.731724  -0.614193   0.583718  -0.835580  -0.313931   0.097474   0.329025  -0.610392   0.272589  -0.165993   0.232314   1.669166   0.066634   3.686767  -0.019593   0.237126  -1.205972  -2.493268   0.751398   0.897453  -0.398866   1.896632   1.137491  -1.726901   0.053894  -3.003231   0.080746   0.236534   0.313306   2.138113  -3.109980  -0.697531   0.391064   3.297116  -0.003882  -0.008935  -3.687669  -0.916640  -0.282210   0.756085   0.000952  -0.008183  -3.428839  -0.857828   0.398020   3.573067  -0.004767  -0.014595  -2.586745   0.362746  -0.224000   0.746936   0.000638  -0.000749
 -2.378155   0.926337   3.971269   3.348540   0.607738  -0.638496  -3.955201  -0.815217  -0.388395   1.517370  -1.215046   1.223047  -1.610256  -0.641952   0.208591   0.641057  -1.186332   1.185823  -0.342120   0.509625   3.738278   0.159237   7.483208  -0.036837   0.504651  -1.466298  -4.357977   1.501576   1.821190  -1.381275   3.822418   2.254792  -3.975599   0.126998  -5.844633   0.143838   0.577898   0.058060   3.761699  -6.011895  -1.393422   0.809435   6.664266  -0.008364  -0.018369  -7.199431  -1.779291  -0.604903   1.307721   0.001394  -0.012735  -6.726753  -1.708943   0.834830   7.381005  -0.011867  -0.029027  -4.994417   0.711974  -0.416502   1.388267   0.000657  -0.001743
 -2.378869   0.926488   3.969232   4.798147   0.699245  -0.980156  -5.659388  -1.179689  -0.571605   2.301072  -1.757102   1.853006  -2.317295  -0.952906   0.308150   0.944844  -1.697726   2.503772  -0.521165   0.779698   6.015985   0.256301  11.289811  -0.048447   0.768901  -1.493932  -5.466849   2.224730   2.668968  -2.725741   5.778170   3.281413  -6.584624   0.200527  -8.494722   0.189595   0.918677  -0.289479   4.728425  -8.674924  -2.061480   1.181951   9.852313  -0.012402  -0.027440 -10.481751  -2.565556  -0.953114   1.805640   0.001752  -0.015879  -9.842736  -2.527177   1.232873  11.197637  -0.019763  -0.042323  -7.238712   1.046037  -0.581412   1.980751   0.000425  -0.002912
 -2.379473   0.926151   3.967460   6.143507   0.649656  -1.293432  -7.236907  -1.498895  -0.740937   3.052644  -2.238072   2.463437  -2.969385  -1.244808   0.395491   1.246045  -2.135704   4.060144  -0.696878   1.047402   8.384161   0.339829  14.919625  -0.053390   1.025159  -1.402088  -5.991617   2.917350   3.426996  -4.282306   7.772391   4.189503  -9.451571   0.265674 -10.970347   0.221694   1.247179  -0.663433   5.184893 -11.127722  -2.699152   1.498134  12.840970  -0.015917  -0.035888 -13.552050  -3.280709  -1.318810   2.254226   0.002069  -0.017931 -12.786539  -3.311064   1.578577  14.981766  -0.027941  -0.054372  -9.333201   1.363888  -0.722515   2.519811   0.000073  -0.004115
 -2.379944   0.925172   3.965986   7.412619   0.469369  -1.567234  -8.720129  -1.776567  -0.897154   3.753909  -2.663645   3.051812  -3.573564  -1.518146   0.473091   1.546546  -2.512375   5.742959  -0.864950   1.303663  10.764452   0.402244  18.311242  -0.052235   1.267970  -1.268647  -6.103666   3.576374   4.104780  -5.948840   9.806637   4.971503 -12.503233   0.318686 -13.284345   0.243034   1.561337  -1.052266   5.285746 -13.402590  -3.304879   1.758748  15.635766  -0.018985  -0.043547 -16.424633  -3.930021  -1.695126   2.658774   0.002352  -0.019149 -15.528629  -4.057899   1.873733  18.545514  -0.035509  -0.064182 -11.285866   1.665410  -0.842754   3.015432  -0.000322  -0.005294
 -2.380275   0.923442   3.964794   8.616930   0.181193  -1.797668 -10.120077  -2.024431  -1.040875   4.399456  -3.046006   3.617209  -4.135438  -1.773925   0.543030   1.847436  -2.845878   7.475258  -1.022207   1.537136  13.104487   0.443013  21.474176  -0.046408   1.492125  -1.149687  -5.937537   4.199844   4.714555  -7.655460  11.878491   5.626277 -15.687123   0.358669 -15.446962   0.256099   1.859533  -1.445608   5.149894 -15.517277  -3.878524   1.969072  18.248317  -0.021633  -0.050050 -19.112303  -4.518688  -2.076656   3.024566   0.002598  -0.019703 -18.086144  -4.767661   2.123293  21.879768  -0.042148  -0.071573 -13.108563   1.950596  -0.945061   3.464445  -0.000706  -0.006316
 -2.380359   0.920271   3.963130   9.171420  -0.241762  -2.147659 -10.692419  -2.273383  -0.868047   5.039711  -3.163340   4.121342  -4.625973  -1.617969   0.458627   1.896481  -3.029960   8.727197  -1.535909   1.819072  15.195093   0.463864  24.976264  -0.030070   1.521760  -1.882930  -4.934369   4.555767   4.992774  -9.127509  14.113753   5.655307 -18.589112   0.355853 -17.028153   0.253495   1.907026  -1.634241   4.314921 -17.073542  -4.439355   2.389087  21.686313  -0.029600  -0.061186 -22.322966  -4.770910  -2.263746   3.339430   0.002065  -0.018797 -20.297035  -5.082269   2.437654  25.818921  -0.045236  -0.070668 -14.615539   2.304167  -0.918604   4.086876  -0.001403  -0.005764
 -2.380322   0.915868   3.961431   9.573882  -0.713647  -2.484369 -11.156885  -2.468710  -0.661274   5.712109  -3.211373   4.597174  -5.054750  -1.453445   0.387526   1.890787  -3.046280   9.723002  -2.066115   2.192450  17.031047   0.458867  28.308685  -0.016460   1.575029  -2.364501  -4.061277   4.848965   5.110164 -10.398759  16.165174   5.491764 -21.204040   0.344159 -18.534957   0.247048   1.957609  -1.859634   3.520545 -18.368524  -4.978331   2.863752  25.239539  -0.039790  -0.069621 -25.320906  -4.991903  -2.450463   3.593840   0.001613  -0.017420 -22.470494  -5.360681   2.661302  29.802962  -0.045858  -0.070372 -16.012024   2.636190  -0.885327   4.709139  -0.001663  -0.005437
 -2.380217   0.910344   3.959846   9.911420  -1.221138  -2.791488 -11.583005  -2.610485  -0.457035   6.342944  -3.208229   5.040243  -5.447569  -1.298704   0.328262   1.846153  -2.961825  10.538874  -2.600651   2.603570  18.669403   0.437310  31.455258  -0.004088   1.656796  -2.625760  -3.375306   5.097679   5.155902 -11.500240  18.049741   5.221561 -23.563791   0.326765 -19.961945   0.236781   2.015181  -2.171318   2.885661 -19.422190  -5.491472   3.370905  28.644510  -0.049951  -0.073984 -28.116496  -5.187549  -2.636020   3.834524   0.001204  -0.016131 -24.636668  -5.621466   2.792991  33.748468  -0.045083  -0.070994 -17.315962   2.944299  -0.847059   5.284898  -0.001631  -0.005337
 -2.380068   0.903774   3.958433  10.206320  -1.765446  -3.065833 -11.987788  -2.699135  -0.263639   6.915401  -3.157283   5.448939  -5.814447  -1.153848   0.276595   1.772150  -2.817657  11.219607  -3.132812   3.024851  20.146943   0.405853  34.416482   0.007199   1.753016  -2.735151  -2.841924   5.317165   5.173630 -12.461922  19.786440   4.894131 -25.702658   0.305850 -21.302258   0.223492   2.072577  -2.518443   2.391186 -20.267096  -5.977364   3.900428  31.870254  -0.059166  -0.075200 -30.725607  -5.360228  -2.818661   4.057050   0.000845  -0.014893 -26.787480  -5.863531   2.845618  37.648677  -0.043811  -0.072589 -18.534718   3.230160  -0.805039   5.811941  -0.001466  -0.005412
 -2.379889   0.896208   3.957213  10.465284  -2.341409  -3.308899 -12.377569  -2.739730  -0.083026   7.430541  -3.063852   5.824066  -6.158942  -1.018265   0.230381   1.676644  -2.639201  11.794920  -3.657361   3.440770  21.488934   0.369137  37.197322   0.017262   1.855335  -2.742058  -2.427429   5.518976   5.186257 -13.309005  21.392152   4.538846 -27.650562   0.283077 -22.554405   0.208179   2.125907  -2.860252   2.001786 -20.929932  -6.435955   4.444830  34.918899  -0.066965  -0.074089 -33.160999  -5.512497  -2.997163   4.261600   0.000539  -0.013707 -28.908623  -6.085949   2.832551  41.508784  -0.042604  -0.074893 -19.673920   3.495388  -0.760408   6.293517  -0.001265  -0.005583
